<svg width="24" height="24" viewBox="0 0 24 24" fill="none" xmlns="http://www.w3.org/2000/svg">
<path d="M13.401 7.33334C13.401 7.33334 14.4416 4.33334 17.2166 6.00001C17.2166 6.00001 20.0783 6.25001 20.2083 7.12501C20.2083 7.12501 17.5633 7.66667 16.8696 9.00001C16.176 10.3333 17.9103 11.3333 15.092 14.2083C15.092 14.2083 13.748 15.6667 11.6666 15.6667C11.6666 15.6667 4.33331 16.6667 3.33331 15.6667" fill="#252525"/>
<path d="M3.375 15.625C3.375 15.625 11.6667 8.00001 14.3333 8.33334C17 8.66668 15 12.75 12.5 14.2083C10 15.6667 3.375 15.625 3.375 15.625Z" fill="#252525"/>
<path d="M10.875 18.5417L12.3333 18" stroke="#252525" stroke-miterlimit="10" stroke-linecap="round" stroke-linejoin="round"/>
<path d="M14.2833 9.82333C14.2195 9.80631 14.1516 9.81447 14.0937 9.84611C14.0357 9.87776 13.9922 9.93046 13.972 9.99333C13.7437 10.7157 12.95 12.3723 10.476 13.3543L10.478 13.3573C10.478 13.3573 10.224 13.425 10.3303 13.6997C10.4223 13.9373 10.657 13.885 10.7193 13.8663C13.4867 12.757 14.3133 10.829 14.535 10.0863C14.5547 10.0203 14.53 9.87033 14.2833 9.82299V9.82333Z" fill="#252525"/>
<path d="M10.5417 13.625C10.5417 13.625 13.3334 13 14.3334 9.66666" stroke="#252525" stroke-miterlimit="10" stroke-linecap="round" stroke-linejoin="round"/>
<path d="M13.6667 7.33334C13.6667 7.33334 14.6667 4.33334 17.3334 6.00001C17.3334 6.00001 20.0834 6.25001 20.2084 7.12501C20.2084 7.12501 17.6667 7.66667 17 9.00001C16.3334 10.3333 18 11.3333 15.2917 14.2083C15.2917 14.2083 14 15.6667 12 15.6667L11.6667 16.3333L12.3334 18L14.3334 18.3333" stroke="#252525" stroke-miterlimit="10" stroke-linecap="round" stroke-linejoin="round"/>
<path d="M3.375 15.625C3.375 15.625 11.6667 8.00001 14.3333 8.33334C17 8.66668 15 12.75 12.5 14.2083C10 15.6667 3.375 15.625 3.375 15.625Z" stroke="#252525" stroke-miterlimit="10" stroke-linecap="round" stroke-linejoin="round"/>
</svg>
