<svg width="14" height="14" viewBox="0 0 14 14" fill="none" xmlns="http://www.w3.org/2000/svg">
<path d="M7 14C3.13438 14 0 10.8656 0 7C0 3.13437 3.13438 0 7 0C10.8656 0 14 3.13437 14 7C14 10.8656 10.8656 14 7 14ZM7 1.1875C3.79063 1.1875 1.1875 3.79062 1.1875 7C1.1875 10.2094 3.79063 12.8125 7 12.8125C10.2094 12.8125 12.8125 10.2094 12.8125 7C12.8125 3.79062 10.2094 1.1875 7 1.1875ZM7.0875 9.51094C7.91562 9.51094 8.47812 8.98281 8.54062 8.20781C8.54531 8.14219 8.6 8.09219 8.66562 8.09219H9.55156C9.59219 8.09219 9.625 8.125 9.625 8.16563C9.625 9.52031 8.55625 10.4688 7.08281 10.4688C5.36562 10.4688 4.375 9.30938 4.375 7.39375V6.57656C4.375 4.675 5.36562 3.53125 7.08281 3.53125C8.55156 3.53125 9.625 4.45 9.625 5.74063C9.625 5.78125 9.59219 5.81406 9.55156 5.81406H8.66406C8.59844 5.81406 8.54531 5.76406 8.53906 5.7C8.47344 4.97969 7.9125 4.48438 7.08594 4.48438C6.06563 4.48438 5.49062 5.23281 5.49062 6.57187V7.39375C5.49219 8.75313 6.06875 9.51094 7.0875 9.51094Z" fill="#656565"/>
</svg>
